<svg xmlns="http://www.w3.org/2000/svg" width="104.982" height="101.283" viewBox="0 0 104.982 101.283">
  <g id="Warning-cuate_2_" data-name="Warning-cuate (2)" transform="translate(-50.69 -50.31)">
    <g id="freepik--background-complete--inject-107" transform="translate(52.664 50.31)">
      <path id="Path_62137" data-name="Path 62137" d="M399.27,50.31h4.721l-.318,17.4h-4.085Z" transform="translate(-311.065 -50.31)" fill="#ebebeb"/>
      <rect id="Rectangle_6913" data-name="Rectangle 6913" width="4.082" height="4.082" transform="translate(88.526 19.576)" fill="#ebebeb"/>
      <path id="Path_62138" data-name="Path 62138" d="M430.6,105.43l3.839,1.118-4.375,14.071-3.322-.968Z" transform="translate(-331.428 -91.17)" fill="#ebebeb"/>
      <rect id="Rectangle_6914" data-name="Rectangle 6914" width="3.456" height="3.456" transform="translate(94.796 30.255) rotate(16.23)" fill="#ebebeb"/>
      <path id="Path_62139" data-name="Path 62139" d="M262.69,79.006l3.058-1.446,5.117,11.373-2.647,1.252Z" transform="translate(-209.819 -70.51)" fill="#ebebeb"/>
      <rect id="Rectangle_6915" data-name="Rectangle 6915" width="2.926" height="2.926" transform="translate(59.068 21.09) rotate(-25.27)" fill="#ebebeb"/>
      <path id="Path_62140" data-name="Path 62140" d="M374.312,340.1H350.18s2.393-6.535,6.077-6.535,4.835,4.509,4.835,4.509,2.484-2.45,4.525-2.45,3.816,3.239,3.816,3.239A3.561,3.561,0,0,1,374.312,340.1Z" transform="translate(-274.674 -260.289)" fill="#ebebeb"/>
      <path id="Path_62141" data-name="Path 62141" d="M287.723,308.491H275s2.846-4.121,5.084-4.121,2.9,2.75,2.9,2.75a4.69,4.69,0,0,1,3.048-1.053C287.493,306.295,287.723,308.491,287.723,308.491Z" transform="translate(-218.944 -238.643)" fill="#ebebeb"/>
      <path id="Path_62142" data-name="Path 62142" d="M83.109,166.338H58.32s3.394-7.577,7.026-8.053,5.368,5.632,5.368,5.632,2.328-2.158,4.183-2.158,3.265,2.846,3.265,2.846S81.847,162.654,83.109,166.338Z" transform="translate(-58.32 -130.331)" fill="#ebebeb"/>
      <path id="Path_62143" data-name="Path 62143" d="M197.226,89.269H180.48s2.877-5.495,6-5.572,4.763,4.157,4.763,4.157S196.093,83.958,197.226,89.269Z" transform="translate(-148.877 -75.059)" fill="#ebebeb"/>
    </g>
    <g id="freepik--Sign--inject-107" transform="translate(103.841 53.182)">
      <rect id="Rectangle_6916" data-name="Rectangle 6916" width="3.084" height="83.836" transform="translate(22.688 14.343)" fill="#dbdbdb"/>
      <path id="Path_62144" data-name="Path 62144" d="M280.37,61.41l-24.23,41.967H304.6Z" transform="translate(-256.14 -61.41)" fill="#ff6470"/>
      <path id="Path_62145" data-name="Path 62145" d="M295.463,84.91,276.5,117.758h37.929Z" transform="translate(-271.233 -78.83)" fill="#fff"/>
      <path id="Path_62146" data-name="Path 62146" d="M342.38,121.65h3.842l-.259,14.161h-3.324Z" transform="translate(-320.069 -106.066)" fill="#ff6470"/>
      <rect id="Rectangle_6917" data-name="Rectangle 6917" width="3.322" height="3.322" transform="translate(22.569 31.521)" fill="#ff6470"/>
      <rect id="Rectangle_6918" data-name="Rectangle 6918" width="48.461" height="16.213" transform="translate(0 44.409)" fill="#ff6470"/>
      <path id="Path_62147" data-name="Path 62147" d="M306.632,251.3H260.35V237.25h46.282Zm-46.024-.259h45.765V237.509H260.609Z" transform="translate(-259.261 -191.759)" fill="#fff"/>
      <path id="Path_62148" data-name="Path 62148" d="M277.874,246.435h.96l.605,1.777.6-1.777h.97l-.916,2.442.68,1.718,1.521-4.176h1.133l-2.186,5.368h-.877l-.929-2.253-.931,2.253h-.877l-2.171-5.368h1.12l1.526,4.176.665-1.718Z" transform="translate(-270.462 -198.557)" fill="#263238"/>
      <path id="Path_62149" data-name="Path 62149" d="M306.649,246.42h.924l2.046,5.368h-1.074l-.5-1.337h-1.876l-.492,1.337H304.6Zm1.2,3.3-.74-2.111-.776,2.108Z" transform="translate(-292.063 -198.557)" fill="#263238"/>
      <path id="Path_62150" data-name="Path 62150" d="M326.26,251.788V246.42h2.375a1.514,1.514,0,0,1,.683.155,1.768,1.768,0,0,1,.541.409,1.881,1.881,0,0,1,.357.574,1.732,1.732,0,0,1,.127.647,1.792,1.792,0,0,1-.259.949,1.516,1.516,0,0,1-.709.616l1.226,2.018h-1.172l-1.1-1.8H327.3v1.8Zm1.035-2.714H328.6a.569.569,0,0,0,.259-.067.7.7,0,0,0,.215-.186.968.968,0,0,0,.145-.277,1.106,1.106,0,0,0,.052-.339,1.008,1.008,0,0,0-.059-.349.962.962,0,0,0-.163-.274.719.719,0,0,0-.235-.181.589.589,0,0,0-.259-.065h-1.262Z" transform="translate(-308.12 -198.557)" fill="#263238"/>
      <path id="Path_62151" data-name="Path 62151" d="M346.765,248.347v3.441H345.73V246.42h.807l2.791,3.513v-3.505h1.035v5.36h-.838Z" transform="translate(-322.553 -198.557)" fill="#263238"/>
      <path id="Path_62152" data-name="Path 62152" d="M368,251.788V246.42h1.035v5.368Z" transform="translate(-339.061 -198.557)" fill="#263238"/>
      <path id="Path_62153" data-name="Path 62153" d="M377.425,248.347v3.441H376.39V246.42h.807l2.791,3.513v-3.505h1.035v5.36h-.846Z" transform="translate(-345.281 -198.557)" fill="#263238"/>
      <path id="Path_62154" data-name="Path 62154" d="M401.473,251.069a2.044,2.044,0,0,1-1.5.644,2.36,2.36,0,0,1-1-.212,2.481,2.481,0,0,1-.807-.582,2.767,2.767,0,0,1-.546-.874,2.875,2.875,0,0,1-.2-1.084,2.706,2.706,0,0,1,.753-1.894,2.587,2.587,0,0,1,.828-.582,2.455,2.455,0,0,1,1.035-.217,2.507,2.507,0,0,1,1.294.318,2.039,2.039,0,0,1,.812.856l-.776.574a1.423,1.423,0,0,0-.569-.613,1.568,1.568,0,0,0-.8-.212,1.367,1.367,0,0,0-.623.145,1.449,1.449,0,0,0-.484.393,1.917,1.917,0,0,0-.31.574,2.14,2.14,0,0,0-.109.688,2.045,2.045,0,0,0,.122.706,1.831,1.831,0,0,0,.331.572,1.583,1.583,0,0,0,.5.38,1.436,1.436,0,0,0,.631.14,1.827,1.827,0,0,0,1.4-.732v-.378h-1.081V248.9h1.945v2.76h-.864Z" transform="translate(-360.877 -198.443)" fill="#263238"/>
      <path id="Path_62155" data-name="Path 62155" d="M420.22,249.622v-3.4h1.014v3.4Zm0,2.018V250.5h1.014v1.141Z" transform="translate(-377.772 -198.409)" fill="#263238"/>
      <path id="Path_62156" data-name="Path 62156" d="M278.159,273.25h.489l1.081,2.846h-.569l-.259-.709h-.993l-.259.709h-.569Zm.636,1.744-.391-1.115L278,275Z" transform="translate(-271.663 -218.446)" fill="#fff"/>
      <path id="Path_62157" data-name="Path 62157" d="M288.86,273.734h-.908v2.357H287.4v-2.357h-.908v-.484h2.365Z" transform="translate(-278.638 -218.446)" fill="#fff"/>
      <path id="Path_62158" data-name="Path 62158" d="M298.445,273.734h-.908v2.357h-.548v-2.357h-.908v-.484h2.365Z" transform="translate(-285.747 -218.446)" fill="#fff"/>
      <path id="Path_62159" data-name="Path 62159" d="M308.551,275.592v.484H306.58V273.23h1.935v.484h-1.384v.686h1.2v.448h-1.2v.74Z" transform="translate(-293.531 -218.431)" fill="#fff"/>
      <path id="Path_62160" data-name="Path 62160" d="M316.414,274.225v1.811h-.554V273.19h.429l1.48,1.865V273.2h.551v2.846h-.448Z" transform="translate(-300.41 -218.402)" fill="#fff"/>
      <path id="Path_62161" data-name="Path 62161" d="M329.1,273.734H328.2v2.357h-.548v-2.357h-.908v-.484H329.1Z" transform="translate(-308.475 -218.446)" fill="#fff"/>
      <path id="Path_62162" data-name="Path 62162" d="M337.24,276.076V273.23h.554v2.846Z" transform="translate(-316.259 -218.431)" fill="#fff"/>
      <path id="Path_62163" data-name="Path 62163" d="M342.384,276.052a1.293,1.293,0,0,1-.567-.124,1.356,1.356,0,0,1-.435-.323,1.425,1.425,0,0,1-.282-.461,1.464,1.464,0,0,1-.1-.533,1.44,1.44,0,0,1,.106-.543,1.469,1.469,0,0,1,.292-.461,1.363,1.363,0,0,1,.442-.318,1.324,1.324,0,0,1,.556-.119,1.267,1.267,0,0,1,.561.127,1.407,1.407,0,0,1,.435.331,1.527,1.527,0,0,1,.279.463,1.467,1.467,0,0,1-.292,1.526,1.356,1.356,0,0,1-.44.316A1.332,1.332,0,0,1,342.384,276.052Zm-.825-1.441a1.2,1.2,0,0,0,.057.357.949.949,0,0,0,.163.3.825.825,0,0,0,.259.212.8.8,0,0,0,.7,0,.789.789,0,0,0,.259-.217.984.984,0,0,0,.16-.305,1.143,1.143,0,0,0,.054-.347,1.122,1.122,0,0,0-.06-.357,1,1,0,0,0-.163-.3.769.769,0,0,0-1.218.008.989.989,0,0,0-.158.3,1.14,1.14,0,0,0-.057.347Z" transform="translate(-319.046 -218.387)" fill="#fff"/>
      <path id="Path_62164" data-name="Path 62164" d="M353.9,274.225v1.811h-.554V273.19h.427l1.48,1.865V273.2h.551v2.846h-.448Z" transform="translate(-328.201 -218.402)" fill="#fff"/>
      <path id="Path_62165" data-name="Path 62165" d="M368.86,276.076V273.23h1.206a.818.818,0,0,1,.362.083.97.97,0,0,1,.285.215,1.058,1.058,0,0,1,.189.305.945.945,0,0,1,.067.341.961.961,0,0,1-.065.349.937.937,0,0,1-.179.3.908.908,0,0,1-.279.212.807.807,0,0,1-.362.08h-.67v.952Zm.554-1.436h.639a.316.316,0,0,0,.259-.124.5.5,0,0,0,.1-.336.518.518,0,0,0-.034-.194.463.463,0,0,0-.083-.145.313.313,0,0,0-.122-.091.354.354,0,0,0-.142-.031h-.621Z" transform="translate(-339.699 -218.431)" fill="#fff"/>
      <path id="Path_62166" data-name="Path 62166" d="M378.5,276.076V273.23h.551v2.357H380.5v.484Z" transform="translate(-346.845 -218.431)" fill="#fff"/>
      <path id="Path_62167" data-name="Path 62167" d="M389.5,275.592v.484H387.53V273.23h1.933v.484h-1.384v.686h1.2v.448h-1.2v.74Z" transform="translate(-353.539 -218.431)" fill="#fff"/>
      <path id="Path_62168" data-name="Path 62168" d="M396.871,273.25h.489l1.079,2.846h-.567l-.259-.709h-.986l-.259.709H395.8Zm.636,1.746-.393-1.115L396.708,275Z" transform="translate(-359.669 -218.446)" fill="#fff"/>
      <path id="Path_62169" data-name="Path 62169" d="M408.117,273.928a.6.6,0,0,0-.1-.078,1.453,1.453,0,0,0-.181-.093,1.416,1.416,0,0,0-.23-.078,1.036,1.036,0,0,0-.259-.034.561.561,0,0,0-.342.085.277.277,0,0,0-.111.235.243.243,0,0,0,.041.147.367.367,0,0,0,.122.1,1.09,1.09,0,0,0,.2.08l.282.075c.14.039.259.078.38.122a1.033,1.033,0,0,1,.287.16.645.645,0,0,1,.181.228.755.755,0,0,1,.065.331.83.83,0,0,1-.085.391.709.709,0,0,1-.233.259,1.017,1.017,0,0,1-.336.147,1.809,1.809,0,0,1-.4.044,2.11,2.11,0,0,1-.631-.1,1.968,1.968,0,0,1-.559-.272l.243-.476a.81.81,0,0,0,.129.093,1.939,1.939,0,0,0,.222.116,1.67,1.67,0,0,0,.285.1,1.309,1.309,0,0,0,.318.041c.305,0,.458-.1.458-.292a.259.259,0,0,0-.052-.158.463.463,0,0,0-.15-.111,1.345,1.345,0,0,0-.23-.088l-.305-.088a2.557,2.557,0,0,1-.354-.122.926.926,0,0,1-.259-.155.592.592,0,0,1-.15-.21.711.711,0,0,1-.052-.282.9.9,0,0,1,.08-.383.8.8,0,0,1,.223-.282,1.05,1.05,0,0,1,.331-.168,1.344,1.344,0,0,1,.4-.06,1.58,1.58,0,0,1,.551.1,2,2,0,0,1,.44.222Z" transform="translate(-367.386 -218.379)" fill="#fff"/>
      <path id="Path_62170" data-name="Path 62170" d="M418.491,275.592v.484H416.52V273.23h1.935v.484h-1.384v.686h1.2v.448h-1.2v.74Z" transform="translate(-375.029 -218.431)" fill="#fff"/>
    </g>
    <g id="freepik--Character--inject-107" transform="translate(53.622 70.922)">
      <path id="Path_62171" data-name="Path 62171" d="M142,388.648h-22.4c-.186-.722-.365-1.431-.543-2.129-.2-.8-.406-1.588-.6-2.352-.044-.171-.088-.341-.132-.517-.147-.585-.292-1.156-.435-1.71-.085-.336-.171-.67-.259-1s-.171-.665-.259-.986c-.023-.085-.041-.171-.065-.259s-.047-.186-.07-.277l-.085-.331h0c-.031-.116-.059-.23-.088-.344l-.16-.636c-.08-.305-.155-.608-.23-.9-.031-.127-.065-.259-.1-.38l-.155-.6c-.034-.132-.065-.259-.1-.383-.132-.517-.259-1-.367-1.449-.034-.119-.06-.235-.093-.349-.047-.2-.1-.383-.14-.564q-.047-.171-.085-.334c-.1-.385-.191-.737-.259-1.048-.023-.08-.044-.16-.065-.238-.049-.2-.1-.385-.137-.548-.018-.065-.031-.127-.049-.184s-.031-.124-.047-.179-.018-.08-.028-.114-.028-.109-.039-.153a.357.357,0,0,0-.018-.067c-.034-.135-.049-.2-.049-.2h21.8s.717,2.473,1.868,6.468c.233.812.484,1.689.755,2.621C140.155,382.181,141.045,385.285,142,388.648Z" transform="translate(-101.265 -308.218)" fill="#37474f"/>
      <path id="Path_62172" data-name="Path 62172" d="M136.845,403.326h-.559q-1.242-5.148-2.409-10.315c-.189-.836-.373-1.674-.556-2.515-.018-.08-.036-.155-.052-.235,0-.041.054-.06.065-.018l.023.078q.38,1.35.753,2.706Q135.528,398.162,136.845,403.326Z" transform="translate(-114.838 -322.895)" fill="#263238"/>
      <path id="Path_62173" data-name="Path 62173" d="M136.06,370.413l-.96,4.817-.792,3.95-1.343,6.726-.137.688-.23,1.151-.173.872H119.6l-.541-2.129c-.2-.8-.406-1.588-.6-2.352-.044-.171-.088-.341-.132-.517-.147-.585-.292-1.156-.435-1.71-.085-.336-.171-.67-.259-1s-.171-.665-.259-.986c-.023-.085-.041-.171-.065-.259s-.047-.186-.07-.277l-.085-.331h0c-.031-.116-.06-.23-.088-.344l-.16-.636c-.08-.305-.155-.608-.23-.9-.034-.129-.065-.259-.1-.38l-.155-.6c-.034-.132-.065-.259-.1-.383-.132-.517-.259-1-.367-1.449-.034-.119-.059-.235-.093-.349-.047-.2-.1-.383-.14-.564q-.047-.171-.085-.334c-.1-.385-.191-.737-.259-1.048-.023-.08-.044-.16-.065-.238-.049-.2-.1-.385-.137-.548-.018-.065-.031-.127-.049-.184s-.031-.124-.047-.179-.018-.08-.028-.114-.028-.109-.039-.153a.356.356,0,0,0-.018-.067c-.034-.135-.049-.2-.049-.2Z" transform="translate(-101.265 -308.195)" fill="#263238"/>
      <path id="Path_62174" data-name="Path 62174" d="M107.31,370.44h0c0,.119-.093,1.418-.3,3.4-.06.579-.129,1.216-.212,1.9-.127,1.076-.287,2.264-.484,3.518-.334,2.189-.776,4.574-1.338,6.907-.2.841-.424,1.674-.66,2.489H76.17c.331-4.289.636-8.17.877-11.228.336-4.3.554-6.985.554-6.985h29.71Z" transform="translate(-72.51 -308.232)" fill="#37474f"/>
      <path id="Path_62175" data-name="Path 62175" d="M181.842,378.523c-.034,1.006-.075,2.013-.14,3.014-.07,1.087-.168,2.173-.31,3.257v.119c-.135,1.017-.285,2.028-.458,3.04a10.826,10.826,0,0,1-.7,2.83,2.763,2.763,0,0,1-.657.887,1.943,1.943,0,0,1-.9.466.913.913,0,0,1-.168.028h-.049a.065.065,0,0,1,.031.059,8.862,8.862,0,0,1-.039,1.017v.044c-.034.292-.088.582-.142.872h-.484a.094.094,0,0,0,0-.018c.085-.318.155-.639.235-.96s.191-.647.259-.978a.049.049,0,0,1,.023-.031,1.5,1.5,0,0,1-1.454-.913,2.6,2.6,0,0,1-.023-1.322c.088-.577.173-1.151.259-1.728.166-1.061.378-2.106.564-3.159l.085-.481c.378-2.142.776-4.287,1.247-6.408.018-.091.036-.179.057-.259a.052.052,0,1,1,.1.016c-.016.142-.028.287-.047.429-.083.815-.178,1.625-.292,2.434-.137.952-.23,1.907-.365,2.859-.044.323-.091.647-.137.97-.22,1.565-.448,3.128-.714,4.688-.124.724-.574,2.02.466,2.246a1.068,1.068,0,0,0,.706-.088,2.225,2.225,0,0,0,.97-1.224,16.559,16.559,0,0,0,.554-2.605q.259-1.431.453-2.866h0c.171-1.2.347-2.385.533-3.578l.287-1.824c.047-.279.091-.561.137-.843A.055.055,0,0,1,181.842,378.523Z" transform="translate(-147.102 -313.728)" fill="#263238"/>
      <path id="Path_62176" data-name="Path 62176" d="M99.815,387.4a14.3,14.3,0,0,0,3.472-.466c.517-.135,1.035-.3,1.552-.471a4.033,4.033,0,0,0,1.4-.7,6.349,6.349,0,0,0,1.5-2.7,25.872,25.872,0,0,0,.911-3.286c0-.054.091-.036.093.016a12.694,12.694,0,0,1-.473,3.728,5.723,5.723,0,0,1-1.5,2.9,5.819,5.819,0,0,1-3.182,1.164,14.58,14.58,0,0,1-3.782-.054.062.062,0,1,1,.005-.124Z" transform="translate(-89.99 -315.128)" fill="#263238"/>
      <path id="Path_62177" data-name="Path 62177" d="M88.917,379.811q-.093,2.362-.2,4.729-.246,5.51-.533,11.021H87.67q.365-5.526.776-11.036.155-2.359.344-4.714A.063.063,0,1,1,88.917,379.811Z" transform="translate(-81.035 -315.13)" fill="#263238"/>
      <path id="Path_62178" data-name="Path 62178" d="M167.9,239.435c3.862,4.677,17.664,21.9,15.721,26.7-1.969,4.858-6.576,8.2-8.974,4.815-1.979-2.791-9.43-22.114-10.5-27.1C163.133,239.091,164.088,234.838,167.9,239.435Z" transform="translate(-137.447 -209.656)" fill="#f7a9a0"/>
      <path id="Path_62179" data-name="Path 62179" d="M162.807,254.2l14.35-2.846s-10.1-12.524-14.112-15.37c-4.514-3.2-5.174-.191-4.326,5S162.807,254.2,162.807,254.2Z" transform="translate(-133.468 -207.588)" fill="#ff6470"/>
      <path id="Path_62180" data-name="Path 62180" d="M177.169,251.3l-14.35,2.846s-3.249-8.02-4.088-13.222-.189-8.2,4.326-5c.228.163.476.357.742.577l.326.277h0a67.7,67.7,0,0,1,5.216,5.319l.1.114c1.48,1.648,2.957,3.363,4.217,4.848l.517.629C175.951,249.789,177.169,251.3,177.169,251.3Z" transform="translate(-133.48 -207.538)" fill="#ff6470"/>
      <path id="Path_62181" data-name="Path 62181" d="M172.7,255.416a4.607,4.607,0,0,0-.308,1.294,4.776,4.776,0,0,0,.626-1.162,4.594,4.594,0,0,0,.31-1.281A4.682,4.682,0,0,0,172.7,255.416Zm-5.355-6.287a4.6,4.6,0,0,0-1.294-.31,4.579,4.579,0,0,0,1.156.629,4.638,4.638,0,0,0,1.294.31A4.579,4.579,0,0,0,167.344,249.13Zm2.766-6.24a6.394,6.394,0,0,0-.323-.618h0l-.329-.272a5.267,5.267,0,0,0,.341,1.035,4.481,4.481,0,0,0,.686,1.125A4.618,4.618,0,0,0,170.109,242.89Zm9.859,10.537c-.039-.083-.078-.166-.119-.246l-.517-.629a5,5,0,0,0,.331,1.014,4.657,4.657,0,0,0,.688,1.125A4.612,4.612,0,0,0,179.968,253.427ZM175,247.591c-.072.052-.145.109-.215.168a3.137,3.137,0,0,0,.318-.054Z" transform="translate(-139.138 -213.021)" fill="#fff"/>
      <path id="Path_62182" data-name="Path 62182" d="M186.957,290.84c-.517.021-5,.841-5.968,1.035s-4.949.975-5.935,1.265a.036.036,0,0,0,0,.07c1.019-.1,5.032-.869,6.025-1.05s5.415-1.092,5.886-1.26C187.016,290.881,186.993,290.84,186.957,290.84Z" transform="translate(-145.792 -249.225)" fill="#263238"/>
      <path id="Path_62183" data-name="Path 62183" d="M171.068,252.538l-8.279,1.643s-3.249-8.02-4.088-13.22c-.618-3.831-.427-6.468,1.529-6.31Z" transform="translate(-133.458 -207.568)" fill="#263238"/>
      <path id="Path_62184" data-name="Path 62184" d="M109.678,275.711,73.27,277.635s3.084-31.021,16.557-44.213c1.663-1.63,6.087-2.383,8.348-.618,1.206.942,3.392,5.153,4.551,9.453S109.776,275.566,109.678,275.711Z" transform="translate(-70.36 -205.452)" fill="#ff6470"/>
      <path id="Path_62185" data-name="Path 62185" d="M97.375,245.989a4.706,4.706,0,0,0-.308,1.281,4.593,4.593,0,0,0,.629-1.159,4.685,4.685,0,0,0,.31-1.281A4.732,4.732,0,0,0,97.375,245.989Zm-4.188,16.6a4.523,4.523,0,0,0-.31,1.294,5.063,5.063,0,0,0,.937-2.44A4.7,4.7,0,0,0,93.186,262.593Zm-2.662,17.615a4.6,4.6,0,0,0-.31,1.278,5.063,5.063,0,0,0,.937-2.44,4.636,4.636,0,0,0-.626,1.162ZM107.415,257.4l-.047.114a4.607,4.607,0,0,0-.308,1.293,4.1,4.1,0,0,0,.481-.817h0C107.5,257.781,107.456,257.589,107.415,257.4Zm-6.9,20.984a4.62,4.62,0,0,0-.313,1.293,4.587,4.587,0,0,0,.631-1.156,4.682,4.682,0,0,0,.308-1.281A4.7,4.7,0,0,0,100.51,278.384ZM85.751,256.161a4.568,4.568,0,0,0-.308,1.281,4.657,4.657,0,0,0,.626-1.159,4.6,4.6,0,0,0,.31-1.294A4.592,4.592,0,0,0,85.751,256.161Zm16.262-4.934a4.594,4.594,0,0,0-1.294-.31,4.579,4.579,0,0,0,1.156.629,4.637,4.637,0,0,0,1.294.31A4.58,4.58,0,0,0,102.013,251.228Zm3.64,13.874a4.617,4.617,0,0,0-1.278-.308,4.49,4.49,0,0,0,1.156.626,4.691,4.691,0,0,0,1.281.313,4.556,4.556,0,0,0-1.159-.631Zm1.907,16.508a4.594,4.594,0,0,0-1.294-.31,5.079,5.079,0,0,0,2.437.939A4.657,4.657,0,0,0,107.56,281.61Zm-27.247-.9a4.593,4.593,0,0,0-1.294-.31,5.1,5.1,0,0,0,2.44.939,4.639,4.639,0,0,0-1.146-.629Zm9.7-11.088a4.575,4.575,0,0,0-1.294-.313,4.6,4.6,0,0,0,1.159.631,4.682,4.682,0,0,0,1.294.308A4.656,4.656,0,0,0,90.014,269.619ZM93.5,253.9a4.657,4.657,0,0,0-.688-1.125,5.052,5.052,0,0,0,1.063,2.388A4.719,4.719,0,0,0,93.5,253.9Zm6.294,13.97a4.72,4.72,0,0,0-.686-1.125,4.6,4.6,0,0,0,.375,1.263,4.657,4.657,0,0,0,.686,1.125,4.656,4.656,0,0,0-.375-1.265Zm-14.821,7.593a4.6,4.6,0,0,0-.688-1.123,4.719,4.719,0,0,0,.375,1.263,4.553,4.553,0,0,0,.688,1.123,4.626,4.626,0,0,0-.375-1.265Zm2.463,11.06a4.636,4.636,0,0,0-.686-1.125,4.486,4.486,0,0,0,.375,1.262c.016.036.034.07.049.106l.354-.018Zm19.3-13.292a4.6,4.6,0,0,0-1.125.683A5.076,5.076,0,0,0,108,272.858a4.4,4.4,0,0,0-1.262.362ZM95.972,284.456a4.656,4.656,0,0,0-1.125.686,4.656,4.656,0,0,0,1.262-.375,4.565,4.565,0,0,0,1.125-.688A4.517,4.517,0,0,0,95.972,284.456ZM78.38,287.017c-.155.072-.31.147-.46.23l.856-.044a4.014,4.014,0,0,0,.867-.564,4.657,4.657,0,0,0-1.27.378Zm6.76-23.6a4.7,4.7,0,0,0-1.125.686,5.107,5.107,0,0,0,2.39-1.061,4.619,4.619,0,0,0-1.273.375Zm9.9,10.99a4.7,4.7,0,0,0-1.125.688,4.532,4.532,0,0,0,1.265-.375,4.634,4.634,0,0,0,1.125-.688,4.708,4.708,0,0,0-1.273.375Zm4.4-16.937a4.655,4.655,0,0,0-1.125.686,5.107,5.107,0,0,0,2.39-1.061,4.618,4.618,0,0,0-1.286.375Zm-9.74-9.9c-.091.041-.179.083-.259.129-.1.145-.2.292-.3.44a6.051,6.051,0,0,0,.706-.259,4.737,4.737,0,0,0,1.125-.686,4.618,4.618,0,0,0-1.283.375Z" transform="translate(-73.807 -215.118)" fill="#fff"/>
      <path id="Path_62186" data-name="Path 62186" d="M76.587,242.778C66.356,254.837,59.363,273.893,63,276.692c4.121,3.179,19.346,5.795,25.394,6.32,1.876.163,2.16-15.377.147-15.331-2.44.057-11.562-1.8-11.8-1.8-.517,0,4.447-15.781,5.883-21.959C84.615,235.312,80.429,238.251,76.587,242.778Z" transform="translate(-62.023 -210.353)" fill="#f7a9a0"/>
      <path id="Path_62187" data-name="Path 62187" d="M178.6,349.164a2.325,2.325,0,0,1-.965,2.468,3.441,3.441,0,0,1,1.087,2.07c.127,1.413-2.033,2.23-2.033,2.23a4.245,4.245,0,0,1,.8,2.37c-.016,1.363-2.07,2.5-2.07,2.5a3.72,3.72,0,0,1-.611,2.525c-1.418,1.927-5.06,1.653-7.376,1.5s-9.365-3.037-10.641-3.41l1.454-14.581s10.581-2.277,13.279-1.713C173.8,345.6,178.112,347.425,178.6,349.164Z" transform="translate(-132.273 -289.398)" fill="#f7a9a0"/>
      <path id="Path_62188" data-name="Path 62188" d="M216.3,364.782a30.463,30.463,0,0,0-7.244-1.922c-.054,0-.07.078-.016.088,2.46.455,4.8,1.394,7.244,1.951a.062.062,0,0,0,.016-.116Z" transform="translate(-170.983 -302.614)" fill="#263238"/>
      <path id="Path_62189" data-name="Path 62189" d="M212.8,383.771a6.611,6.611,0,0,0-1.7-.372c-.608-.088-1.216-.168-1.826-.235q-1.832-.21-3.671-.323c-.054,0-.072.08-.016.085,1.216.14,2.432.3,3.64.489q.908.145,1.811.3a7.89,7.89,0,0,0,1.718.217.088.088,0,0,0,.044-.16Z" transform="translate(-168.423 -317.425)" fill="#263238"/>
      <path id="Path_62190" data-name="Path 62190" d="M209.653,403.695a4.817,4.817,0,0,0-1.539-.259c-.559-.052-1.115-.106-1.674-.163-1.112-.114-2.225-.23-3.335-.383-.054,0-.072.078-.016.085,1.125.16,2.248.339,3.376.489q.83.114,1.661.215a4.325,4.325,0,0,0,1.524.065.031.031,0,0,0,0-.049Z" transform="translate(-166.57 -332.288)" fill="#263238"/>
      <path id="Path_62191" data-name="Path 62191" d="M90.807,257.218,76.32,255.11s9.443-13.028,13.3-16.076c4.341-3.43,5.146-.46,4.579,4.768S90.807,257.218,90.807,257.218Z" transform="translate(-72.621 -209.731)" fill="#ff6470"/>
      <path id="Path_62192" data-name="Path 62192" d="M92.656,254.375a4.573,4.573,0,0,0-1.136.686A5.107,5.107,0,0,0,93.911,254,4.618,4.618,0,0,0,92.656,254.375Zm3.816,6.325a4.657,4.657,0,0,0-.688-1.125,5.052,5.052,0,0,0,1.063,2.388A4.719,4.719,0,0,0,96.472,260.7ZM82.14,265.057h0c-.07.1-.14.191-.21.282h.018a4.691,4.691,0,0,0,1.294.313A4.5,4.5,0,0,0,82.14,265.057Zm6.584-2.1a4.569,4.569,0,0,0-.308,1.281,4.657,4.657,0,0,0,.626-1.159,4.6,4.6,0,0,0,.31-1.293A4.592,4.592,0,0,0,88.724,262.959Z" transform="translate(-76.78 -221.916)" fill="#fff"/>
      <path id="Path_62193" data-name="Path 62193" d="M85.57,296.19c.517,0,5.034.582,6.012.732s4.993.717,5.994.955a.036.036,0,1,1,0,.072c-1.022-.047-5.071-.608-6.072-.74s-5.464-.81-5.95-.952C85.513,296.244,85.534,296.19,85.57,296.19Z" transform="translate(-79.45 -253.191)" fill="#263238"/>
      <path id="Path_62194" data-name="Path 62194" d="M127.73,278.451c.44.031,1.125.106,1.125.106.432-2,1.079-3.966,1.6-5.95s1.12-4,1.674-6.007a.024.024,0,0,1,.047.013q-.362,1.731-.74,3.454l.171-.414c.2-.489.417-.973.6-1.469a.035.035,0,1,1,.067.018,13.066,13.066,0,0,1-.517,1.519c-.147.347-.318.68-.492,1.014-.15.657-.3,1.317-.466,1.971-.517,2.01-.931,4.279-1.6,6.243,0,0-1.012-.235-1.508-.409a.049.049,0,0,1,.036-.088Z" transform="translate(-110.69 -231.243)" fill="#263238"/>
      <path id="Path_62195" data-name="Path 62195" d="M148,222.964c-1.956.665-5.691-2.07-7.285-4.416-.106-.163-.018-1.979-.016-4.194,0-1.343-.036-2.846-.168-4.2-.028-.279,8.747,1.257,8.747,1.257a21.868,21.868,0,0,0-.326,5.311,3.041,3.041,0,0,0,.114.554c0,.023.016.054.021.091C149.359,218.411,149.892,222.32,148,222.964Z" transform="translate(-120.22 -189.387)" fill="#f7a9a0"/>
      <path id="Path_62196" data-name="Path 62196" d="M148.878,217.488a5.21,5.21,0,0,0,.872-.129.72.72,0,0,0-.021-.093,3.177,3.177,0,0,1-.111-.554,21.918,21.918,0,0,1,.323-5.309s-7.12-1.25-8.511-1.294C141.836,211.662,143.828,217.861,148.878,217.488Z" transform="translate(-120.887 -189.381)" fill="#263238"/>
      <path id="Path_62197" data-name="Path 62197" d="M130.827,153.276c-.686,3.1,1.612,11.748,3.925,13.533,3.363,2.587,8.5,2.45,10.607-1.5,2.046-3.831-1.146-15.039-3.7-16.624C137.9,146.35,131.841,148.686,130.827,153.276Z" transform="translate(-112.936 -143.166)" fill="#f7a9a0"/>
      <path id="Path_62198" data-name="Path 62198" d="M181.455,196.83h-.021a8.3,8.3,0,0,1-1.591,6.09,4.685,4.685,0,0,1-1.273,1.115.023.023,0,0,0,.023.039,6.105,6.105,0,0,0,1.224-.877,5.432,5.432,0,0,0,.931-1.2,6.711,6.711,0,0,0,.911-3.216A9.77,9.77,0,0,0,181.455,196.83Z" transform="translate(-148.414 -179.536)" fill="#263238"/>
      <path id="Path_62199" data-name="Path 62199" d="M165.318,187.225c0-.023-.039.039-.031.062.158.577.259,1.268-.235,1.588-.016,0,0,.039.013.031C165.685,188.661,165.564,187.745,165.318,187.225Z" transform="translate(-138.393 -172.412)" fill="#263238"/>
      <path id="Path_62200" data-name="Path 62200" d="M161.92,185.351c-.957.158-.572,2.057.313,1.909S162.719,185.219,161.92,185.351Z" transform="translate(-135.662 -171.022)" fill="#263238"/>
      <path id="Path_62201" data-name="Path 62201" d="M179.18,184.38c0-.023.052.018.057.041.1.592.305,1.255.877,1.345.018,0,.021.034,0,.036C179.446,185.829,179.177,184.955,179.18,184.38Z" transform="translate(-148.871 -170.302)" fill="#263238"/>
      <path id="Path_62202" data-name="Path 62202" d="M179.583,181.55c.931-.259,1.379,1.627.517,1.865S178.8,181.765,179.583,181.55Z" transform="translate(-148.868 -168.191)" fill="#263238"/>
      <path id="Path_62203" data-name="Path 62203" d="M160.428,179.366a7.9,7.9,0,0,1-.686.4,1.294,1.294,0,0,1-.776.274.411.411,0,0,1-.336-.373,1,1,0,0,1,.585-.846,1.49,1.49,0,0,1,1.048-.238.437.437,0,0,1,.166.781Z" transform="translate(-133.637 -166)" fill="#263238"/>
      <path id="Path_62204" data-name="Path 62204" d="M177.54,171.611a7.355,7.355,0,0,1-.794-.044,1.293,1.293,0,0,1-.8-.2.406.406,0,0,1-.078-.481,1.014,1.014,0,0,1,.952-.388,1.5,1.5,0,0,1,1.006.378.44.44,0,0,1-.285.735Z" transform="translate(-146.38 -160.016)" fill="#263238"/>
      <path id="Path_62205" data-name="Path 62205" d="M168.747,182.71a5.083,5.083,0,0,1,2.279-.608c.067-.023.1-.168.1-.235h0c0-.021-.295-1.231-.295-1.231.178.047,1.089.259,1.035.016a30.133,30.133,0,0,0-2.018-5.816.055.055,0,1,0-.1.036c.429,1.855,1.177,3.622,1.638,5.474a3.475,3.475,0,0,0-.993-.088c-.059.031.383,1.294.4,1.493a2.947,2.947,0,0,0-2.1.711C168.465,182.668,168.421,182.924,168.747,182.71Z" transform="translate(-140.963 -163.204)" fill="#263238"/>
      <path id="Path_62206" data-name="Path 62206" d="M164.759,211.544a.948.948,0,0,0,.564.235,1.552,1.552,0,0,0,.592-.282.021.021,0,0,1,.031.026.8.8,0,0,1-.67.473.634.634,0,0,1-.567-.416C164.695,211.549,164.736,211.529,164.759,211.544Z" transform="translate(-138.142 -190.406)" fill="#263238"/>
      <path id="Path_62207" data-name="Path 62207" d="M168.628,201.89c-.551.109-2.3.818-1.865,1.63.189.357.776.145,1.226-.375A3.837,3.837,0,0,0,168.628,201.89Z" transform="translate(-139.616 -183.287)" fill="#263238"/>
      <path id="Path_62208" data-name="Path 62208" d="M167.766,206.148c-.4.344-.843.442-1,.145a.572.572,0,0,1,.065-.629C167.164,205.607,167.88,205.55,167.766,206.148Z" transform="translate(-139.617 -186.06)" fill="#ff9abb"/>
      <path id="Path_62209" data-name="Path 62209" d="M137.909,138.426c-2.636,2.892-7.7.644-7.7.644a3.508,3.508,0,0,1-2.957,2.978s.631,5.466-.776,5.785c-2.142.489-4.507-6.61-4.168-8.193a3.919,3.919,0,0,1,2.07-2.375,3.583,3.583,0,0,1,.957-2.455c1.2-1.462,6.587-1.141,6.587-1.141a4.791,4.791,0,0,1,.88-2.044,1.356,1.356,0,0,1,1.943-.272,3.218,3.218,0,0,0-.2,1.431c.114,1.617,1.387,1.317,1.035-.093a2.258,2.258,0,0,0-.838-1.337c.411-1.071,1.366-1.614,2.1-1.265C138.186,130.719,140.1,136.023,137.909,138.426Z" transform="translate(-106.687 -129.983)" fill="#263238"/>
      <path id="Path_62210" data-name="Path 62210" d="M129.467,191.959s-2.486-2.419-3.622-1.48,1.11,4.706,2.7,4.975a1.552,1.552,0,0,0,1.873-1.2Z" transform="translate(-109.105 -174.668)" fill="#f7a9a0"/>
      <path id="Path_62211" data-name="Path 62211" d="M129.273,195.186c-.023,0-.021.036,0,.041a3.886,3.886,0,0,1,2.434,2.015.856.856,0,0,0-1.294,0c-.023.023,0,.062.039.049a.947.947,0,0,1,1.087.129,4.618,4.618,0,0,1,.649.735c.067.085.225,0,.171-.1a.106.106,0,0,1-.013-.023C132.116,196.71,130.727,195.047,129.273,195.186Z" transform="translate(-111.863 -178.312)" fill="#263238"/>
      <path id="Path_62212" data-name="Path 62212" d="M136.893,243.918a12.037,12.037,0,0,0,4.533,4.186,6.317,6.317,0,0,0,2.926.792,2.642,2.642,0,0,0,1.513-.419,3.053,3.053,0,0,0,.924-1.26,5.987,5.987,0,0,0,.445-1.744,14.442,14.442,0,0,0,.088-2.036c0-.026.039-.023.039,0,.018.644.091,1.294.062,1.93a6.524,6.524,0,0,1-.259,1.679,3.811,3.811,0,0,1-.776,1.413,2.372,2.372,0,0,1-1.449.732,5.614,5.614,0,0,1-3.154-.554,10.369,10.369,0,0,1-2.672-1.788,11.362,11.362,0,0,1-2.266-2.905C136.815,243.908,136.88,243.882,136.893,243.918Z" transform="translate(-117.483 -214.072)" fill="#263238"/>
      <path id="Path_62213" data-name="Path 62213" d="M197.894,282.439c1.922,3.736,6.938,1.014,8.02-1.71,2.559-6.4,3.345-19.85,2.647-26.041-.225-1.992-12.953-.14-13.432,1.948C194.637,258.822,194,274.856,197.894,282.439Z" transform="translate(-160.419 -221.794)" fill="#f7a9a0"/>
      <path id="Path_62214" data-name="Path 62214" d="M203.951,188.428s.517-4.033.82-7.58a25.3,25.3,0,0,0-.8-7.523c-.812-2.258-5.653-11.184-7.841-10.056-1.982,1.019,3.151,8.16,3.151,8.16s-4.543-7.663-6.7-5.994,4.711,8.962,4.711,8.962-4.843-7.761-6.8-5.691c-1.477,1.565,4.375,8.537,4.375,8.537s-4.209-6.649-5.8-5.1c-1.754,1.707,3.242,8.47,3.242,8.47-3.363,4.6-4.054,7.484-1.369,10.242C191.368,191.276,203.951,188.428,203.951,188.428Z" transform="translate(-155.918 -154.585)" fill="#f7a9a0"/>
      <path id="Path_62215" data-name="Path 62215" d="M218.273,181.483c-.5-.918-1-1.852-1.581-2.724s-1.193-1.723-1.852-2.538a17.987,17.987,0,0,0-2.869-2.921,38.391,38.391,0,0,1,4.486,5.627c.579.872,1.2,1.71,1.785,2.587C218.258,181.53,218.286,181.5,218.273,181.483Z" transform="translate(-173.177 -162.091)" fill="#263238"/>
      <path id="Path_62216" data-name="Path 62216" d="M211.5,194.3c-.691-1.146-1.335-2.308-2.07-3.425s-1.534-2.1-2.346-3.156c-.062-.08-.085-.021-.026.065.776,1.087,1.4,2.152,2.152,3.249s1.552,2.165,2.271,3.286C211.488,194.339,211.514,194.321,211.5,194.3Z" transform="translate(-169.514 -172.756)" fill="#263238"/>
      <path id="Path_62217" data-name="Path 62217" d="M204.9,207.523a30.906,30.906,0,0,0-3.568-5.115c-.065-.078-.085,0-.023.088,1.219,1.638,2.178,3.035,3.529,5.063C204.863,207.59,204.925,207.562,204.9,207.523Z" transform="translate(-165.251 -183.648)" fill="#263238"/>
      <path id="Path_62218" data-name="Path 62218" d="M191.846,174.1a3.752,3.752,0,0,1-.22-1.154,1.537,1.537,0,0,1,.388-.978c.016-.018.044,0,.026.026a1.25,1.25,0,0,0-.259,1.125,6.082,6.082,0,0,0,.282,1.048,8.649,8.649,0,0,0,.453,1.035,10.487,10.487,0,0,0,.543.973h0a.016.016,0,0,1,0,.018h0a.018.018,0,0,1-.026,0,3.945,3.945,0,0,0-1.358-1.035,1.676,1.676,0,0,0-.776-.21,1.035,1.035,0,0,0-.97.965,2.07,2.07,0,0,0,.142.737,15.476,15.476,0,0,0,.626,1.6,9.333,9.333,0,0,0,.422.854c.163.279.326.548.458.836,0,.018-.057.034-.07.023-.176-.147-1.413-1.345-2.155-1.407a.918.918,0,0,0-.947.5,1.855,1.855,0,0,0-.127,1.19,14.163,14.163,0,0,0,.613,2.018c0,.021-.026.031-.034,0-.194-.479-.616-1.506-.748-2a1.827,1.827,0,0,1,.065-1.268,1.133,1.133,0,0,1,.921-.662,1.9,1.9,0,0,1,1.131.422,12.4,12.4,0,0,1,1.131.988c-.122-.176-.652-1.1-.792-1.381a13.028,13.028,0,0,1-.73-1.746,1.42,1.42,0,0,1,.194-1.526,1.294,1.294,0,0,1,1.456-.222,3.363,3.363,0,0,1,1.035.691c-.075-.106-.147-.217-.212-.331A6.331,6.331,0,0,1,191.846,174.1Z" transform="translate(-155.429 -161.101)" fill="#263238"/>
      <path id="Path_62219" data-name="Path 62219" d="M199.57,343.29c.235.688.458,1.376.714,2.054s.5,1.356.776,2.018a9.758,9.758,0,0,0,.993,1.863,1.7,1.7,0,0,0,.155.194l.166.166a3.415,3.415,0,0,0,.417.29,3.287,3.287,0,0,0,.929.375,3.42,3.42,0,0,0,1,.078,4.152,4.152,0,0,0,1-.215,6.69,6.69,0,0,0,1.832-1.009c.29-.2.554-.45.823-.68a4.4,4.4,0,0,0,.68-.8,7.02,7.02,0,0,0,.918-1.943,6.347,6.347,0,0,1-.7,2.07,4.658,4.658,0,0,1-.66.905,10.183,10.183,0,0,1-.8.768,6.59,6.59,0,0,1-1.92,1.154,4.417,4.417,0,0,1-1.118.259,3.992,3.992,0,0,1-1.162-.078,3.82,3.82,0,0,1-1.071-.448,3.761,3.761,0,0,1-.473-.339l-.217-.217a2.091,2.091,0,0,1-.178-.235,8.956,8.956,0,0,1-.973-2.005,26.162,26.162,0,0,1-1.123-4.225Z" transform="translate(-163.986 -288.106)" fill="#263238"/>
    </g>
    <g id="freepik--Lines--inject-107" transform="translate(86.828 64.148)">
      <path id="Path_62220" data-name="Path 62220" d="M200.99,114.815l3.107-4.455,1.529,1.557,2.8-3.358,1.6,1.679-4.545,2.926-1.219-1.519Z" transform="translate(-198.245 -107.329)" fill="#455a64"/>
      <path id="Path_62221" data-name="Path 62221" d="M197.16,139.577l4.287-.957,0,1.369,3.115.21.031,1.464-4.181-.755.329-1.34Z" transform="translate(-195.406 -129.612)" fill="#455a64"/>
      <path id="Path_62222" data-name="Path 62222" d="M190.7,111.287l-.316-4.126,1.469.179-.031-3.363,1.638-.176-.929,4.357-1.306-.246Z" transform="translate(-190.38 -103.8)" fill="#455a64"/>
    </g>
    <g id="freepik--Table--inject-107" transform="translate(50.949 151.334)">
      <path id="Path_62223" data-name="Path 62223" d="M51.69,440.939l12.824-.065,12.827-.021,25.653-.044,25.653.044,12.827.021,12.824.065L141.473,441l-12.827.023-25.653.044-25.653-.044L64.514,441Z" transform="translate(-51.69 -440.81)" fill="#263238"/>
    </g>
    <g id="freepik--speech-bubble--inject-107" transform="translate(50.69 57.295)">
      <path id="Path_62224" data-name="Path 62224" d="M50.69,86.692a9.176,9.176,0,0,0,14.65,7.373l4.5,1.149-1.873-4.188A9.181,9.181,0,1,0,50.69,86.692Z" transform="translate(-50.69 -77.459)" fill="#fff"/>
      <path id="Path_62225" data-name="Path 62225" d="M50.69,86.543a9.228,9.228,0,0,0,1.374,4.8,10.637,10.637,0,0,0,.732,1.035,10.79,10.79,0,0,0,.88.908,5.993,5.993,0,0,0,.479.411l.517.378c.171.124.36.22.538.334l.259.16c.091.052.189.093.282.14l.572.259.6.212a4.057,4.057,0,0,0,.605.176c.2.047.406.114.613.142a9.269,9.269,0,0,0,1.252.137,7.845,7.845,0,0,0,1.257-.018,9.2,9.2,0,0,0,2.442-.572,9.313,9.313,0,0,0,2.189-1.218l.034-.026h.044l4.5,1.128-.132.158-1.881-4.168-.026-.054.031-.054a9.1,9.1,0,0,0,.3-7.942,9.44,9.44,0,0,0-2.437-3.278,9.055,9.055,0,0,0-3.635-1.881,9.2,9.2,0,0,0-4.106-.111,9.329,9.329,0,0,0-3.741,1.723A9.2,9.2,0,0,0,50.69,86.543Zm0,0a9.243,9.243,0,1,1,18.479.352,9.075,9.075,0,0,1-1.094,4.044v-.111l1.863,4.194.1.215-.228-.06-4.494-1.169.078-.016a9.2,9.2,0,0,1-4.729,1.764,8.04,8.04,0,0,1-1.273,0,8.995,8.995,0,0,1-1.262-.153c-.212-.031-.414-.1-.618-.15a4.5,4.5,0,0,1-.611-.186l-.6-.222c-.191-.088-.38-.184-.572-.277-.1-.049-.191-.091-.285-.142l-.259-.168c-.176-.114-.365-.215-.536-.341l-.517-.383a5.63,5.63,0,0,1-.479-.417,10.151,10.151,0,0,1-.88-.916,9.948,9.948,0,0,1-.727-1.035A9.236,9.236,0,0,1,50.69,86.543Z" transform="translate(-50.69 -77.31)" fill="#263238"/>
      <path id="Path_62226" data-name="Path 62226" d="M81.44,91.57h2.147l-.145,7.916H81.585Z" transform="translate(-73.485 -87.881)" fill="#ff6470"/>
      <rect id="Rectangle_6919" data-name="Rectangle 6919" width="1.858" height="1.858" transform="translate(8.1 12.596)" fill="#ff6470"/>
    </g>
  </g>
</svg>
