<svg xmlns="http://www.w3.org/2000/svg" width="19.808" height="21.815" viewBox="0 0 19.808 21.815">
  <g id="Group_8837" data-name="Group 8837" transform="translate(-1535 -69)">
    <g id="Group_8603" data-name="Group 8603" transform="translate(1535 69)">
      <path id="Path" d="M18.927,0H.881a.881.881,0,0,0,0,1.762H18.927a.881.881,0,0,0,0-1.762Z" transform="translate(0 4.011)" fill="#d11a44"/>
      <path id="Path-2" data-name="Path" d="M14.917,0a.881.881,0,0,0-.881.881V14.917a1.125,1.125,0,0,1-1.124,1.124H2.886a1.125,1.125,0,0,1-1.124-1.124V.881A.881.881,0,1,0,0,.881V14.917A2.89,2.89,0,0,0,2.886,17.8H12.912A2.89,2.89,0,0,0,15.8,14.917V.881A.881.881,0,0,0,14.917,0Z" transform="translate(2.006 4.011)" fill="#d11a44"/>
      <path id="Path-3" data-name="Path" d="M6.9,0H2.886A2.89,2.89,0,0,0,0,2.886V4.891a.881.881,0,1,0,1.762,0V2.886A1.125,1.125,0,0,1,2.886,1.762H6.9A1.125,1.125,0,0,1,8.02,2.886V4.891a.881.881,0,1,0,1.762,0V2.886A2.889,2.889,0,0,0,6.9,0Z" transform="translate(5.014)" fill="#d11a44"/>
      <path id="Path-4" data-name="Path" d="M.881,0A.881.881,0,0,0,0,.881V6.9a.881.881,0,1,0,1.762,0V.881A.881.881,0,0,0,.881,0Z" transform="translate(7.02 9.023)" fill="#d11a44"/>
      <path id="Path-5" data-name="Path" d="M.881,0A.881.881,0,0,0,0,.881V6.9a.881.881,0,1,0,1.762,0V.881A.881.881,0,0,0,.881,0Z" transform="translate(11.029 9.023)" fill="#d11a44"/>
    </g>
  </g>
</svg>
