<svg id="Group_14544" data-name="Group 14544" xmlns="http://www.w3.org/2000/svg" xmlns:xlink="http://www.w3.org/1999/xlink" width="21.655" height="12.884" viewBox="0 0 21.655 12.884">
  <defs>
    <clipPath id="clip-path">
      <rect id="Rectangle_7466" data-name="Rectangle 7466" width="21.655" height="12.884" fill="#172757"/>
    </clipPath>
  </defs>
  <g id="Group_14543" data-name="Group 14543" clip-path="url(#clip-path)">
    <path id="Path_64900" data-name="Path 64900" d="M10.832,12.884a11.827,11.827,0,0,1-5.944-1.658A16.065,16.065,0,0,1,.208,6.991.851.851,0,0,1,.2,5.884,16.551,16.551,0,0,1,4.252,2.036,11.974,11.974,0,0,1,9.537.073a11.559,11.559,0,0,1,7.3,1.614A16.111,16.111,0,0,1,21.458,5.9a.843.843,0,0,1,0,1.089,16.122,16.122,0,0,1-4.625,4.2,11.659,11.659,0,0,1-4.922,1.622c-.357.031-.716.048-1.074.072M15.372,6.6a4.548,4.548,0,1,0-4.677,4.376A4.551,4.551,0,0,0,15.372,6.6" transform="translate(0 0.001)" fill="#172757"/>
    <path id="Path_64901" data-name="Path 64901" d="M103.956,49.617a2.451,2.451,0,1,1-2.407-2.452,2.445,2.445,0,0,1,2.407,2.452" transform="translate(-90.677 -43.176)" fill="#172757"/>
  </g>
</svg>
