<svg xmlns="http://www.w3.org/2000/svg" xmlns:xlink="http://www.w3.org/1999/xlink" width="241.434" height="241.435" viewBox="0 0 241.434 241.435">
  <defs>
    <clipPath id="clip-path">
      <rect id="Rectangle_6274" data-name="Rectangle 6274" width="161.774" height="161.85" fill="#1f122f"/>
    </clipPath>
  </defs>
  <g id="Group_13079" data-name="Group 13079" transform="translate(-444.5 -222)">
    <path id="placeholder" d="M120,0h.434a120,120,0,0,1,120,120v.435a120,120,0,0,1-120,120H120a120,120,0,0,1-120-120V120A120,120,0,0,1,120,0Z" transform="translate(445 222.5)" fill="#dbdbdb" stroke="rgba(0,0,0,0)" stroke-width="1"/>
    <g id="Group_12764" data-name="Group 12764" transform="translate(484 261.5)">
      <g id="Group_11993" data-name="Group 11993" clip-path="url(#clip-path)">
        <path id="Path_60846" data-name="Path 60846" d="M31.133,136.209c8.273-25.692,25.233-39.9,52.662-39.375,16.838.32,38.983,11.253,46.687,39.543.952-.847,1.818-1.557,2.616-2.335a74.472,74.472,0,0,0,12.833-89.489,25.7,25.7,0,0,1-1.37-2.484,3.1,3.1,0,0,1,1.187-4.127,3.021,3.021,0,0,1,4.163.956,14.424,14.424,0,0,1,1.157,1.878c8.813,15.627,12.471,32.4,9.9,50.145-4.675,32.3-22.515,54.789-53.033,66.023C61.248,174.13,10.154,144.378,1.331,95.376A80.544,80.544,0,0,1,65.57,1.541c22.822-4.312,43.881.45,62.855,13.985a14.582,14.582,0,0,1,2.422,2.007,2.858,2.858,0,0,1,.2,3.772,2.989,2.989,0,0,1-3.895.981,14.812,14.812,0,0,1-2.092-1.4C80.658-11.389,18.218,12.874,7.792,66.851,2.726,93.084,10.38,115.923,29.447,134.8c.513.507,1.107.932,1.686,1.414m93.29,4.946c-1.495-17.882-18.279-39.1-45.613-38.128-21.193.755-41.751,19.769-41.423,38.236,25.871,19.321,62.825,18.3,87.036-.107" transform="translate(0 0)" fill="#1f122f"/>
        <path id="Path_60847" data-name="Path 60847" d="M139.752,81.51a28.417,28.417,0,1,1-28.177-28.454A28.332,28.332,0,0,1,139.752,81.51m-6.33-.076a22.086,22.086,0,1,0-22,22.118,22.049,22.049,0,0,0,22-22.118" transform="translate(-30.515 -19.525)" fill="#1f122f"/>
        <path id="Path_60848" data-name="Path 60848" d="M221.132,44.33a3.059,3.059,0,0,1-3,3.041,3.225,3.225,0,0,1-3.224-3.2,3.281,3.281,0,0,1,3.063-3.051,3.1,3.1,0,0,1,3.156,3.207" transform="translate(-79.09 -15.133)" fill="#1f122f"/>
      </g>
    </g>
  </g>
</svg>
