<svg xmlns="http://www.w3.org/2000/svg" width="19.361" height="20.05" viewBox="0 0 19.361 20.05">
  <path id="Path_55538" data-name="Path 55538" d="M133.937,381.655a8.317,8.317,0,0,1-1.695,5.375.321.321,0,0,0,.029.515q2.241,2.309,4.463,4.637a1.061,1.061,0,0,1-.414,1.828,1.08,1.08,0,0,1-1.122-.377q-1.72-1.8-3.446-3.587c-.362-.376-.731-.746-1.083-1.131a.263.263,0,0,0-.408-.049,8.064,8.064,0,0,1-11.586-3.067,7.952,7.952,0,0,1,1.917-9.854,8.062,8.062,0,0,1,9.222-.9A7.89,7.89,0,0,1,133.937,381.655Zm-2.118.47a5.978,5.978,0,1,0-6,5.947A5.991,5.991,0,0,0,131.82,382.125Z" transform="translate(-117.734 -374)" fill="#909090"/>
</svg>
