<svg xmlns="http://www.w3.org/2000/svg" width="20.641" height="6.807" viewBox="0 0 20.641 6.807">
  <g id="Group_11049" data-name="Group 11049" transform="translate(20.641 0) rotate(90)">
    <g id="Group_2562" data-name="Group 2562" transform="translate(6.802 1.813) rotate(110)">
      <g id="Group_2561" data-name="Group 2561" transform="translate(0 0)">
        <path id="Path_7132" data-name="Path 7132" d="M5.311,2.637a2.648,2.648,0,0,0-5.3,0,2.254,2.254,0,0,0,0,.516,2.388,2.388,0,0,0,.146.5,3.073,3.073,0,0,0,.252.45,2.423,2.423,0,0,0,.331.41,2.344,2.344,0,0,0,.4.318,2.158,2.158,0,0,0,.45.252,2.186,2.186,0,0,0,.556.2,2.322,2.322,0,0,0,.516,0A2.648,2.648,0,0,0,4.53,4.517a2.423,2.423,0,0,0,.331-.41,3.074,3.074,0,0,0,.252-.45,2.459,2.459,0,0,0,.2-.5A2.255,2.255,0,0,0,5.311,2.637Z" fill="#172757"/>
      </g>
    </g>
    <g id="Group_2564" data-name="Group 2564" transform="translate(6.807 8.734) rotate(110)">
      <g id="Group_2563" data-name="Group 2563" transform="translate(0 0)">
        <path id="Path_7133" data-name="Path 7133" d="M5.3,2.637a2.264,2.264,0,0,0,0-.516,2.146,2.146,0,0,0-.2-.49,2.647,2.647,0,0,0-.252-.463,1.907,1.907,0,0,0-.331-.4A2.648,2.648,0,0,0,0,2.637a2.939,2.939,0,0,0,.2,1.02,2.963,2.963,0,0,0,.238.45,2.543,2.543,0,0,0,.344.4,1.933,1.933,0,0,0,.4.331,2.148,2.148,0,0,0,.45.252,2.252,2.252,0,0,0,.5.146,2.2,2.2,0,0,0,.516.053,2.254,2.254,0,0,0,.516,0,2.149,2.149,0,0,0,.49-.146,2.211,2.211,0,0,0,.463-.252,1.933,1.933,0,0,0,.4-.331,1.933,1.933,0,0,0,.331-.4A2.129,2.129,0,0,0,5.1,3.71a2.24,2.24,0,0,0,.2-.556A2.191,2.191,0,0,0,5.3,2.637Z" fill="#172757"/>
      </g>
    </g>
    <g id="Group_2566" data-name="Group 2566" transform="translate(6.807 15.649) rotate(110)">
      <g id="Group_2565" data-name="Group 2565" transform="translate(0 0)">
        <path id="Path_7134" data-name="Path 7134" d="M5.3,2.637a2.273,2.273,0,0,0,0-.516,2.254,2.254,0,0,0-.2-.5,3.073,3.073,0,0,0-.252-.45,1.933,1.933,0,0,0-.331-.4A2.648,2.648,0,0,0,.781.77a1.934,1.934,0,0,0-.331.4,3.073,3.073,0,0,0-.252.45,2.17,2.17,0,0,0-.146.5A2.276,2.276,0,0,0,0,2.637,2.649,2.649,0,0,0,.781,4.5a1.933,1.933,0,0,0,.4.331,2.148,2.148,0,0,0,.45.252,2.252,2.252,0,0,0,.5.146,2.2,2.2,0,0,0,.516.053,2.254,2.254,0,0,0,.516,0,2.149,2.149,0,0,0,.49-.146,2.211,2.211,0,0,0,.463-.252,1.933,1.933,0,0,0,.4-.331,1.933,1.933,0,0,0,.331-.4A2.12,2.12,0,0,0,5.1,3.71a2.248,2.248,0,0,0,.2-.556A2.191,2.191,0,0,0,5.3,2.637Z" fill="#172757"/>
      </g>
    </g>
  </g>
</svg>
