<svg xmlns="http://www.w3.org/2000/svg" width="33" height="35" viewBox="0 0 33 35">
  <g id="Group_8838" data-name="Group 8838" transform="translate(-1025 -285.821)">
    <ellipse id="Ellipse_538" data-name="Ellipse 538" cx="16.5" cy="17.5" rx="16.5" ry="17.5" transform="translate(1025 285.821)" fill="#6418c3" opacity="0.08"/>
    <g id="Group_8648" data-name="Group 8648" transform="translate(1034 296.642)">
      <path id="Path_55702" data-name="Path 55702" d="M-122.059,355.752c.067-.53.121-1.009.189-1.486a1.438,1.438,0,0,1,1.654-1.324c1.149.116,2.3.258,3.444.389l4.434.5c.731.083,1.464.152,2.193.251a1.5,1.5,0,0,1,1.292,1.7q-.413,3.68-.838,7.359a1.42,1.42,0,0,1-1.081,1.323c-.121.033-.171.088-.162.214a1.537,1.537,0,0,1-1.6,1.566c-3.357-.008-6.713,0-10.07-.005a1.378,1.378,0,0,1-1.435-1.419q-.012-3.776,0-7.553a1.484,1.484,0,0,1,1.155-1.515A5,5,0,0,1-122.059,355.752Zm-1.232,6.741c.1-.068.174-.112.242-.161.7-.507,1.394-1.017,2.094-1.521a1.663,1.663,0,0,1,2.251.112q.917.81,1.835,1.618a.946.946,0,0,0,1.221.132q1.912-1.105,3.814-2.227a.354.354,0,0,0,.149-.255q.016-1.437,0-2.874a.827.827,0,0,0-.768-.846,1.905,1.905,0,0,0-.237-.008h-9.739c-.063,0-.127,0-.19,0a.64.64,0,0,0-.6.428,1.5,1.5,0,0,0-.083.509c-.006,1.607,0,3.215,0,4.822C-123.3,362.3-123.3,362.376-123.291,362.494Zm11.6-1.248c-.117.065-.193.105-.268.149q-1.634.945-3.268,1.89a1.719,1.719,0,0,1-2.184-.223c-.624-.55-1.245-1.1-1.873-1.647a.875.875,0,0,0-1.192-.049q-1.343.98-2.676,1.974a.431.431,0,0,0-.147.289c-.018.348-.008.7-.007,1.045,0,.612.233.842.851.842q4.894,0,9.788,0a1.61,1.61,0,0,0,.4-.039c.295-.077.561-.246.567-.564C-111.677,363.7-111.69,362.494-111.69,361.245Zm-9.631-5.515h8.685a1.6,1.6,0,0,1,1.7,1.71q0,3,0,6.009v.292a.643.643,0,0,0,.472-.564c.021-.165.038-.33.057-.5q.3-2.582.6-5.164c.072-.621.15-1.241.2-1.864a.709.709,0,0,0-.66-.827c-.25-.038-.5-.064-.754-.093q-2.5-.288-5-.575c-1.423-.165-2.845-.334-4.268-.5a.689.689,0,0,0-.816.5C-121.208,354.665-121.247,355.185-121.321,355.73Z" transform="translate(124.049 -352.932)" fill="#6418c3"/>
      <path id="Path_55703" data-name="Path 55703" d="M6.962,454.948a1.548,1.548,0,1,1,1.551-1.538A1.559,1.559,0,0,1,6.962,454.948Zm.8-1.548a.807.807,0,1,0-.8.808A.811.811,0,0,0,7.766,453.4Z" transform="translate(0.743 -447.153)" fill="#6418c3"/>
    </g>
  </g>
</svg>
